<svg xmlns="http://www.w3.org/2000/svg" viewBox="0 0 32 32" role="img" aria-label="Verified secure container images">
  <defs>
    <linearGradient id="shield" x1="0" y1="0" x2="0" y2="1">
      <stop offset="0" stop-color="#34d399"/>
      <stop offset="1" stop-color="#15803d"/>
    </linearGradient>
  </defs>
  <rect width="32" height="32" rx="7" fill="#0f172a"/>
  <path d="M15 4.0 L25 7.6 V14.8 C25 20.9 20.7 24.6 15 26.8 C9.3 24.6 5 20.9 5 14.8 V7.6 Z" fill="url(#shield)"/>
  <!-- container cube -->
  <g>
    <path d="M15 7.6 L20.2 10.3 L15 13.0 L9.8 10.3 Z" fill="#ffffff"/>
    <path d="M9.8 10.3 L15 13.0 L15 18.7 L9.8 16.0 Z" fill="#ffffff" opacity="0.80"/>
    <path d="M20.2 10.3 L15 13.0 L15 18.7 L20.2 16.0 Z" fill="#ffffff" opacity="0.62"/>
  </g>
  <!-- verified check badge -->
  <circle cx="22.5" cy="22.5" r="6.2" fill="#0f172a"/>
  <circle cx="22.5" cy="22.5" r="4.8" fill="#ffffff"/>
  <path d="M20.0 22.6 L21.9 24.5 L25.2 20.4" fill="none" stroke="#16a34a" stroke-width="2.0" stroke-linecap="round" stroke-linejoin="round"/>
</svg>
